<svg xmlns="http://www.w3.org/2000/svg" viewBox="0 0 41.81 43.71"><defs><style>.cls-1,.cls-2{fill:none;stroke:#fd6424;stroke-width:2px;}.cls-1{stroke-miterlimit:10;}.cls-2{stroke-linejoin:round;}</style></defs><title>2</title><g id="Слой_2" data-name="Слой 2"><g id="icons"><polyline class="cls-1" points="18 8.71 22 4.71 18 0.71"/><polyline class="cls-1" points="9.52 34.28 3.88 33.7 3.36 39.42"/><polyline class="cls-1" points="34.62 28.36 36.08 33.83 41.55 32.37"/><path class="cls-1" d="M2.39,30.84A18.79,18.79,0,0,1,1,23.71a19,19,0,0,1,19-19h2"/><path class="cls-1" d="M34.15,36.39a19,19,0,0,1-30.26-2.6"/><path class="cls-1" d="M25,5.37A19,19,0,0,1,36.08,33.83"/><circle class="cls-1" cx="20" cy="23.71" r="3"/><path class="cls-2" d="M32,25.45V22l-3.23-.25a8.82,8.82,0,0,0-1.16-2.79l2.11-2.46L27.25,14l-2.47,2.1A9,9,0,0,0,22,14.94l-.25-3.23h-3.5L18,14.94a9,9,0,0,0-2.78,1.15L12.75,14l-2.47,2.47,2.11,2.46a8.82,8.82,0,0,0-1.16,2.79L8,22v3.49l3.23.26a8.76,8.76,0,0,0,1.16,2.78L10.28,31l2.47,2.47,2.47-2.11A9,9,0,0,0,18,32.48l.25,3.23h3.5L22,32.48a9,9,0,0,0,2.78-1.16l2.47,2.11L29.72,31l-2.11-2.47a8.76,8.76,0,0,0,1.16-2.78Z"/></g></g></svg>
