<svg xmlns="http://www.w3.org/2000/svg" viewBox="0 0 48 47"><defs><style>.cls-1,.cls-2{fill:none;stroke:#fd6424;stroke-width:2px;}.cls-1{stroke-miterlimit:10;}.cls-2{stroke-linejoin:round;}</style></defs><title>3</title><g id="Слой_2" data-name="Слой 2"><g id="icons"><path class="cls-1" d="M20,34V33c0-1.78-4.68-4-8.5-4S3,32.22,3,34V44"/><polyline class="cls-2" points="26 46 31 36 17 36 14 43 8 43"/><path class="cls-2" d="M21,3V25a2,2,0,0,0,2,2h2v4.3a1,1,0,0,0,1.76.65L31,27H45a2,2,0,0,0,2-2V3a2,2,0,0,0-2-2H23A2,2,0,0,0,21,3Z"/><line class="cls-2" y1="46" x2="47" y2="46"/><path class="cls-1" d="M13,12.37A4.78,4.78,0,0,1,16,17v2"/><path class="cls-1" d="M6,19V17a4.79,4.79,0,0,1,3-4.63"/><line class="cls-1" x1="11" y1="10" x2="11" y2="15"/><line class="cls-1" x1="4" y1="19" x2="18" y2="19"/><path class="cls-2" d="M7,21v1a3.83,3.83,0,0,0,4,4,3.83,3.83,0,0,0,4-4V21"/><path class="cls-2" d="M37.05,14a3,3,0,1,1-3-3A3,3,0,0,1,37.05,14Z"/><path class="cls-2" d="M41,14a7,7,0,0,0-.19-1.61l2-1.14-2-3.46-2,1.13A7,7,0,0,0,36,7.26V5H32V7.28a6.88,6.88,0,0,0-2.8,1.64l-2-1.15-2,3.46,2,1.16A6.92,6.92,0,0,0,27,14a7.18,7.18,0,0,0,.2,1.62l-2,1.17,2,3.46,2-1.16A7,7,0,0,0,32,20.68V23h4V20.69a6.88,6.88,0,0,0,2.8-1.61l2,1.15,2-3.46-2-1.14A6.9,6.9,0,0,0,41,14Z"/></g></g></svg>
