<svg xmlns="http://www.w3.org/2000/svg" viewBox="0 0 46 45"><defs><style>.cls-1,.cls-2{fill:none;stroke:#fd6424;stroke-width:2px;}.cls-1{stroke-miterlimit:10;}.cls-2{stroke-linejoin:round;}</style></defs><title>1</title><g id="Слой_2" data-name="Слой 2"><g id="icons"><rect class="cls-1" x="24" y="11" width="21" height="27"/><line class="cls-1" x1="24" y1="20" x2="45" y2="20"/><line class="cls-1" x1="24" y1="26" x2="45" y2="26"/><line class="cls-1" x1="24" y1="32" x2="38" y2="32"/><line class="cls-1" x1="31" y1="38" x2="31" y2="20"/><line class="cls-1" x1="38" y1="38" x2="38" y2="20"/><path class="cls-1" d="M34,9V3a2,2,0,0,0-2-2H9L1,9V42a2,2,0,0,0,2,2H32a2,2,0,0,0,2-2V40"/><polyline class="cls-1" points="4 10 10 10 10 4"/><path class="cls-2" d="M5,27a4,4,0,1,0,4-4A4,4,0,0,0,5,27Z"/><path class="cls-2" d="M4.22,34.61A8.76,8.76,0,0,0,7,35.77V38h4V35.77a8.76,8.76,0,0,0,2.78-1.16l1.58,1.58,2.83-2.83-1.58-1.58A8.76,8.76,0,0,0,17.77,29H20V25H17.77a8.76,8.76,0,0,0-1.16-2.78l1.58-1.58-2.83-2.83-1.58,1.58A8.76,8.76,0,0,0,11,18.23V16H7v2.23a8.76,8.76,0,0,0-2.78,1.16"/></g></g></svg>
